# xmcd
#
# Track frame offsets:
#	150
#	23407
#	39942
#	56067
#	76682
#	102390
#	117077
#	140400
#	162022
#
# Disc length: 2557
#
# Revision: 3
# Processed by: cddbd v1.5.1PL0 Copyright (c) Steve Scherf et al.
# Submitted via: dBpowerAMP V4.0
# Normalized: r2:TSWAP
#
DISCID=6009fb09
DTITLE=Various Artist - Volunteer Jam Vii
DYEAR=1981
DGENRE=Country
TTITLE0=Charlie Daniels Band - Sweet Home Alabama
TTITLE1=Delbert Mcclinton - Standing on Shakey Ground
TTITLE2=Crystal Gayle and The Charlie Daniels Band - Falling in Love For The Night
TTITLE3=Bobby Bare - Marie Laveau
TTITLE4=Jimmy Hall - (Your Love Has Lifted Me) Higher And Higher
TTITLE5=Molly Hatchet With Ted Nugent - Mississippi Queen
TTITLE6=Ted Nugent - Around And Around
TTITLE7=Dobie Gray - A Change is Gonna Come
TTITLE8=Charlie Daniels Band - Can't You See
EXTD=(p)1981 Epic Records\\\\ USA,  JE 37178
EXTT0=
EXTT1=
EXTT2=
EXTT3=
EXTT4=
EXTT5=
EXTT6=
EXTT7=
EXTT8=
PLAYORDER=
